<?xml version="1.0" encoding="UTF-8"?>
<svg xmlns="http://www.w3.org/2000/svg" viewBox="0 0 64 64">
  <rect width="64" height="64" rx="14" fill="#000000"/>
  <path
    d="M32 8c-2.6 2.6-6 4-9.5 4S16.3 10.6 15 9c-.5 2.6.3 4.7 1.7 6.4-2 .2-3.4.9-4.7 2 2 .8 3.4.8 5-.5-.9 1.4-1.1 2.6-.9 4 1.6-.9 2.9-1.9 3.7-3.3.8 1.4.8 2.6-.1 4 1.6-.6 2.8-1.5 3.7-2.7.9 1.5 2.2 2.3 3.9 2.7-.9-1.4-.9-2.6-.1-4-.9-1.4-.9-2.6.1-4-1.7.4-3 1.2-3.9 2.7-.9-1.4-2.1-2.4-3.7-2.7Z"
    fill="#f2b705"
  />
  <path
    d="M16 22h32v5c0 12-6.8 20.5-16 25.5C22.8 47.5 16 39 16 27v-5Z"
    fill="#000000"
    stroke="#f2b705"
    strokeWidth="2.5"
  />
</svg>
